<?xml version="1.0" encoding="iso-8859-1"?>

<!DOCTYPE svg PUBLIC "-//W3C//DTD SVG 1.1//EN" "http://www.w3.org/Graphics/SVG/1.1/DTD/svg11.dtd">
<!-- Uploaded to: SVG Repo, www.svgrepo.com, Generator: SVG Repo Mixer Tools -->
<svg fill="#000000" version="1.1" xmlns="http://www.w3.org/2000/svg" xmlns:xlink="http://www.w3.org/1999/xlink" 
	 width="800px" height="800px" viewBox="0 0 29.663 23.889"
	 xml:space="preserve">
<g id="layers-2">
	<path d="M29.228,15.225l-4.07-2.152l-7.944,4.199c-0.733,0.389-1.557,0.594-2.381,0.594c-0.823,0-1.645-0.205-2.377-0.592
		l-7.948-4.201l-4.071,2.152C0.168,15.367,0,15.65,0,15.961s0.168,0.594,0.436,0.734l12.906,6.822c0.936,0.494,2.047,0.494,2.982,0
		l12.903-6.822c0.268-0.141,0.436-0.424,0.436-0.734S29.495,15.367,29.228,15.225z"/>
	<path d="M0.436,8.665l12.906,6.822c0.468,0.248,0.979,0.371,1.49,0.371c0.513,0,1.024-0.125,1.492-0.373l12.903-6.82
		c0.268-0.142,0.436-0.426,0.436-0.735c0-0.311-0.167-0.595-0.436-0.735L16.325,0.372C15.856,0.123,15.345,0,14.833,0
		c-0.513,0-1.023,0.123-1.492,0.372L0.436,7.194C0.168,7.334,0,7.619,0,7.929C0,8.239,0.168,8.523,0.436,8.665z M14.831,5.167
		c3.256,0,5.895,1.236,5.895,2.761s-2.639,2.761-5.895,2.761S8.937,9.453,8.937,7.928S11.575,5.167,14.831,5.167z"/>
</g>
<g id="Layer_1">
</g>
</svg>